#tb 0: 1/5
#media_type 0: video
#codec_id 0: rawvideo
#dimensions 0: 320x240
#sar 0: 1/1
0,          0,          0,        1,   115200, 0xd3940ff3
0,          1,          1,        1,   115200, 0x4e4cf17d
0,          2,          2,        1,   115200, 0x2d67ec4a
0,          3,          3,        1,   115200, 0xf18d0848
0,          4,          4,        1,   115200, 0x00ed0f82
